<!--?xml version="1.0" standalone="no"?-->
              <svg id="sw-js-blob-svg" viewBox="0 0 100 100" xmlns="http://www.w3.org/2000/svg" version="1.1">
                    <defs> 
                        <linearGradient id="sw-gradient" x1="0" x2="1" y1="1" y2="0">
                            <stop id="stop1" stop-color="rgba(248, 117, 55, 1)" offset="0%"></stop>
                            <stop id="stop2" stop-color="rgba(251, 168, 31, 1)" offset="100%"></stop>
                        </linearGradient>
                    </defs>
                <path fill="url(#sw-gradient)" d="M11,-20.6C14.5,-14.9,17.6,-12.2,21.8,-8.4C26,-4.6,31.2,0.3,30.4,4.3C29.7,8.2,23,11.1,19,17.5C15.1,23.8,13.9,33.5,10.1,34.8C6.3,36.1,0,29,-8,26.8C-16,24.7,-25.6,27.6,-29.1,24.6C-32.5,21.7,-29.9,12.8,-29,5.4C-28.1,-2,-29.1,-7.9,-27,-12.3C-25,-16.8,-19.9,-19.9,-14.9,-24.9C-9.8,-29.9,-4.9,-36.8,-0.6,-35.9C3.8,-35,7.5,-26.3,11,-20.6Z" transform="translate(50 50)" stroke-width="0" style="transition: all 0.3s ease 0s;" stroke="url(#sw-gradient)"></path>
              </svg>